PathFileType	4	(X/Y/Z)	C:/Users/beibeiliu/ov580/test_trc/capture2\sequence.31_training_dense_left.trc
DataRate	CameraRate	NumFrames	NumMarkers	Units	OrigDataRate	OrigDataStartFrame	OrigNumFrames
120	120	9	19	mm	120	351	400
Frame#	Time	ThumbCMC			ThumbMCP			ThumbIP			ThumbTip			IndexMCP			IndexPIP			IndexTip			MiddleMCP			MiddlePIP			MiddleTip			RingMCP			RingPIP			RingTip			PinkyMCP			PinkyPIP			PinkyTip			BackHand1			BackHand2			BackHand3	
		X0	Y0	Z0	X1	Y1	Z1	X2	Y2	Z2	X3	Y3	Z3	X4	Y4	Z4	X5	Y5	Z5	X6	Y6	Z6	X7	Y7	Z7	X8	Y8	Z8	X9	Y9	Z9	X10	Y10	Z10	X11	Y11	Z11	X12	Y12	Z12	X13	Y13	Z13	X14	Y14	Z14	X15	Y15	Z15	X16	Y16	Z16	X17	Y17	Z17	X18	Y18	Z18	
350	2.91667	-161.61	44.0419	11.9352	-138.705	51.4811	-18.2174	-124.343	42.091	-40.0086	-111.075	18.1831	-47.2665	-172.851	4.22547	-53.5485	-163.305	4.26815	-75.6529	-150.607	7.71294	-101.662	-161.66	-18.7073	-50.1066	-157.283	-24.4043	-75.3726	-152.816	-30.5407	-104.046	-143.279	-19.1287	-40.9997	-131.394	-20.2171	-71.693	-121.221	-12.7476	-95.3275	-116.799	-14.7917	-30.3583	-105.9	14.7496	-36.5645	-115.927	32.8085	-11.187	-149.657	-17.6776	6.83317	-155.188	-9.03615	36.1649	-174.376	3.72081	19.8811	
351	2.925	-162.727	43.6668	10.3609	-138.737	52.0927	-19.8676	-123.127	40.5172	-42.8433	-112.357	17.0175	-47.1658	-173.48	5.8792	-52.5118	-164.824	5.40702	-74.2949	-149.911	8.32869	-102.265	-160	-19.01	-47.6086	-161.03	-22.748	-73.4123	-150.47	-31.8571	-99.4562	-138.994	-23.5773	-44.8564	-129.204	-22.6043	-70.9406	-117.463	-16.8876	-91.9609	-118.107	-12.7174	-30.7875	-106.159	12.0986	-38.3373	-111.923	30.76	-11.82	-151.226	-16.351	11.1799	-149.978	-10.6905	35.9392	-175.94	4.75243	17.3138	
352	2.93333	-161.36	42.1567	10.9377	-139.575	51.5508	-17.2341	-123.989	36.8454	-43.3095	-112.277	17.0411	-45.8705	-173.44	5.33319	-51.1093	-164.905	7.12776	-80.0389	-147.505	6.04773	-99.6668	-162.159	-17.4228	-45.4072	-158.285	-24.9689	-71.3113	-153.193	-30.3516	-104.287	-138.454	-23.8802	-45.231	-132.171	-21.8847	-68.4022	-120.153	-13.9917	-93.9144	-114.033	-12.963	-34.617	-105.364	13.9049	-37.2175	-111.153	33.1383	-13.0739	-149.87	-20.7033	8.3006	-148.431	-10.698	39.6122	-173.365	2.50077	19.5604	
353	2.94167	-161.033	40.6301	9.30757	-138.74	50.6231	-16.5597	-124.398	38.0446	-41.9264	-112.325	18.9995	-47.0035	-169.461	2.07696	-52.3678	-160.866	4.78635	-78.7252	-149.74	8.97924	-99.4972	-163.282	-17.9511	-50.41	-158.322	-22.8678	-76.4196	-150.534	-30.7588	-102.026	-139.231	-22.1774	-41.5259	-132.674	-20.807	-70.3987	-121.974	-13.0254	-91.7865	-114.117	-12.7991	-33.8937	-106.692	14.9678	-38.9407	-108.346	33.7307	-15.1012	-149.86	-17.4601	7.75737	-152.122	-8.24083	38.1102	-175.652	3.4246	15.9583	
354	2.95	-162.819	45.4067	10.2445	-138.722	52.5042	-20.1053	-124.403	41.2578	-42.8577	-111.351	17.6048	-48.3143	-172.04	4.38092	-51.3687	-161.438	5.65597	-77.8631	-150.161	10.0796	-97.9013	-160.082	-17.3893	-45.9277	-157.467	-22.5772	-75.8794	-149.655	-28.2476	-100.673	-141.319	-20.0736	-42.9565	-133.004	-18.5152	-70.4854	-118.52	-9.87655	-93.2267	-119.281	-12.1216	-31.0203	-103.551	14.3767	-40.6442	-109.655	36.2688	-22.4369	-151.999	-17.2734	10.3055	-151.384	-10.6005	41.2041	-173.73	5.68972	18.9898	
355	2.95833	-162.663	45.4616	10.8802	-139.28	54.7299	-19.6153	-124.552	42.6503	-44.7396	-112.014	24.7956	-52.7214	-170.582	4.52647	-51.971	-160.472	5.79956	-79.4148	-151.068	11.237	-98.1902	-160.321	-18.3963	-50.309	-158.393	-21.1774	-75.4495	-148.732	-26.5372	-100.852	-140.333	-20.3639	-42.1502	-131.725	-17.4017	-71.5106	-120.002	-6.499	-91.7186	-116.851	-14.6099	-35.1873	-106.839	9.89868	-45.8283	-103.355	35.8179	-29.4382	-147.807	-18.5848	10.5994	-153.284	-9.02576	37.189	-176.545	5.32635	14.4747	
356	2.96667	-164.359	45.8749	9.32849	-141.097	53.9012	-19.299	-127.217	47.9571	-40.6301	-111.973	27.5726	-57.3571	-172.335	6.04461	-54.04	-164.723	7.12651	-76.9941	-146.504	11.3886	-100.704	-162.51	-16.4841	-48.637	-156.826	-21.0307	-77.1607	-147.264	-23.4145	-106.485	-143.526	-18.3708	-45.0529	-131.248	-15.7341	-72.8938	-113.512	-2.38583	-92.3325	-121.993	-17.2276	-35.509	-107.99	1.79119	-52.3914	-103.063	30.8894	-44.8655	-148.371	-16.9345	8.54773	-153.155	-6.45137	38.4786	-177.919	6.11549	14.8717	
357	2.975	-164.369	47.7126	10.5447	-144.314	60.0716	-17.3451	-129.952	52.9939	-45.6096	-116.302	36.2461	-56.2001	-172.554	6.24362	-52.2303	-165.857	9.07815	-78.4538	-149.098	12.7206	-98.678	-164.125	-12.0519	-49.2158	-157.342	-17.9755	-76.9227	-144.944	-15.1825	-109.317	-142.631	-18.8972	-45.2791	-128.173	-16.4016	-71.7793	-114.076	4.76845	-90.016	-122.046	-19.9776	-34.2736	-107.593	-10.6039	-53.7668	-97.6523	22.2877	-56.0362	-149.712	-15.9216	10.6556	-150.953	-8.50641	37.6064	-174.47	6.11341	16.9652	
358	2.98333	-166.6	48.506	11.312	-145.449	61.4499	-16.0617	-132.987	57.9113	-41.6475	-117.897	42.6496	-58.082	-175.003	7.14316	-50.5564	-164.921	6.74286	-77.1354	-147.907	17.1258	-100.326	-161.597	-16.0225	-52.136	-154.098	-16.6381	-80.6089	-137.179	-8.59708	-105.409	-136.699	-22.111	-47.0402	-122.828	-15.4985	-69.4058	-105.876	11.6485	-81.5237	-117.313	-24.7396	-31.4916	-101.828	-15.5369	-54.5983	-96.1361	8.27601	-67.1816	-149.54	-16.3969	6.53702	-149.037	-11.0113	36.988	-175.074	8.29892	16.2597	
